<svg id="Calque_1" data-name="Calque 1" xmlns="http://www.w3.org/2000/svg" xmlns:xlink="http://www.w3.org/1999/xlink" viewBox="0 0 75 79.83"><defs><style>.cls-1,.cls-2,.cls-3{fill:none;stroke-linecap:round;stroke-linejoin:round;stroke-width:3px;}.cls-1,.cls-2,.cls-3{stroke:#ffffff;}</style></defs><title>Accueil W</title><path class="cls-1" d="M270.1,453.46a5.68,5.68,0,0,0,5.67,5.67h6.66a5.68,5.68,0,0,0,5.67-5.67V446.8a5.68,5.68,0,0,1,5.67-5.67h6.66a5.68,5.68,0,0,1,5.67,5.67v6.66a5.68,5.68,0,0,0,5.67,5.67h6.66a5.68,5.68,0,0,0,5.67-5.67V428.8a15.74,15.74,0,0,0-4-9.68l-19-19a5.68,5.68,0,0,0-8,0l-19,19a15.79,15.79,0,0,0-4,9.68Z" transform="translate(-259.6 -380.8)"/><path class="cls-2" d="M261.1,420.44c0,2.47,1.81,2.7,4,.49l28-28a5.68,5.68,0,0,1,8,0l28,28c2.21,2.21,4,2,4-.49s-1.8-6.3-4-8.51l-28-28a5.68,5.68,0,0,0-8,0l-28,28C262.91,414.14,261.1,418,261.1,420.44Z" transform="translate(-259.6 -380.8)"/><path class="cls-3" d="M315.1,387.35c0,2.47,1.81,6.3,4,8.5l1,1c2.21,2.2,4,1.45,4-1.66v-6.67c0-3.11-2-5.66-4.5-5.66A4.51,4.51,0,0,0,315.1,387.35Z" transform="translate(-259.6 -380.8)"/></svg>