<?xml version="1.0" standalone="no"?><svg xmlns="http://www.w3.org/2000/svg" viewBox="0 0 1440 320"><path fill="#85c174" fill-opacity="1" d="M0,224L40,218.7C80,213,160,203,240,181.3C320,160,400,128,480,106.7C560,85,640,75,720,80C800,85,880,107,960,117.3C1040,128,1120,128,1200,117.3C1280,107,1360,85,1400,74.7L1440,64L1440,320L1400,320C1360,320,1280,320,1200,320C1120,320,1040,320,960,320C880,320,800,320,720,320C640,320,560,320,480,320C400,320,320,320,240,320C160,320,80,320,40,320L0,320Z"></path></svg>