<?xml version="1.0" encoding="UTF-8" standalone="no"?>
<svg
   xmlns:dc="http://purl.org/dc/elements/1.1/"
   xmlns:cc="http://creativecommons.org/ns#"
   xmlns:rdf="http://www.w3.org/1999/02/22-rdf-syntax-ns#"
   xmlns:svg="http://www.w3.org/2000/svg"
   xmlns="http://www.w3.org/2000/svg"
   xmlns:sodipodi="http://sodipodi.sourceforge.net/DTD/sodipodi-0.dtd"
   xmlns:inkscape="http://www.inkscape.org/namespaces/inkscape"
   version="1.1"
   id="Capa_1"
   x="0px"
   y="0px"
   viewBox="0 0 51.997 51.997"
   style="enable-background:new 0 0 51.997 51.997;"
   xml:space="preserve"
   sodipodi:docname="isLike.svg"
   inkscape:version="0.92.4 (5da689c313, 2019-01-14)"><metadata
   id="metadata41"><rdf:RDF><cc:Work
       rdf:about=""><dc:format>image/svg+xml</dc:format><dc:type
         rdf:resource="http://purl.org/dc/dcmitype/StillImage" /></cc:Work></rdf:RDF></metadata><defs
   id="defs39" /><sodipodi:namedview
   pagecolor="#ffffff"
   bordercolor="#666666"
   borderopacity="1"
   objecttolerance="10"
   gridtolerance="10"
   guidetolerance="10"
   inkscape:pageopacity="0"
   inkscape:pageshadow="2"
   inkscape:window-width="1920"
   inkscape:window-height="986"
   id="namedview37"
   showgrid="false"
   inkscape:zoom="16"
   inkscape:cx="31.504113"
   inkscape:cy="28.942723"
   inkscape:window-x="-11"
   inkscape:window-y="-11"
   inkscape:window-maximized="1"
   inkscape:current-layer="Capa_1" />
<g
   id="g4">
	<path
   d="M51.911,16.242C51.152,7.888,45.239,1.827,37.839,1.827c-4.93,0-9.444,2.653-11.984,6.905   c-2.517-4.307-6.846-6.906-11.697-6.906c-7.399,0-13.313,6.061-14.071,14.415c-0.06,0.369-0.306,2.311,0.442,5.478   c1.078,4.568,3.568,8.723,7.199,12.013l18.115,16.439l18.426-16.438c3.631-3.291,6.121-7.445,7.199-12.014   C52.216,18.553,51.97,16.611,51.911,16.242z M49.521,21.261c-0.984,4.172-3.265,7.973-6.59,10.985L25.855,47.481L9.072,32.25   c-3.331-3.018-5.611-6.818-6.596-10.99c-0.708-2.997-0.417-4.69-0.416-4.701l0.015-0.101C2.725,9.139,7.806,3.826,14.158,3.826   c4.687,0,8.813,2.88,10.771,7.515l0.921,2.183l0.921-2.183c1.927-4.564,6.271-7.514,11.069-7.514   c6.351,0,11.433,5.313,12.096,12.727C49.938,16.57,50.229,18.264,49.521,21.261z"
   id="path2"
   style="stroke:none;fill:#f44336;fill-opacity:1" />
</g>
<g
   id="g6">
</g>
<g
   id="g8">
</g>
<g
   id="g10">
</g>
<g
   id="g12">
</g>
<g
   id="g14">
</g>
<g
   id="g16">
</g>
<g
   id="g18">
</g>
<g
   id="g20">
</g>
<g
   id="g22">
</g>
<g
   id="g24">
</g>
<g
   id="g26">
</g>
<g
   id="g28">
</g>
<g
   id="g30">
</g>
<g
   id="g32">
</g>
<g
   id="g34">
</g>
<path
   style="fill:#f44336;fill-opacity:1;stroke:#f44336;stroke-width:74.26245117;stroke-miterlimit:4;stroke-dasharray:none;stroke-opacity:0"
   d="M 16.759305,40.437077 C 11.900587,35.983754 7.6109599,32.009299 7.2268016,31.604944 3.9811539,28.188682 1.8818856,23.82878 1.328985,19.355943 1.0481434,17.084008 1.4659495,14.140699 2.4038864,11.783601 4.2474008,7.150735 7.9402095,4.113155 12.36911,3.5865449 c 0.710608,-0.084495 2.547693,-0.036519 3.179103,0.083017 3.893709,0.7371474 7.074152,3.2775972 8.821511,7.0463681 0.16346,0.352553 0.495632,1.121004 0.738158,1.707666 0.242528,0.586671 0.456831,1.066668 0.476225,1.066668 0.01937,0 0.272019,-0.569595 0.561387,-1.265772 1.071552,-2.5779979 1.855975,-3.812122 3.335649,-5.2479811 0.732694,-0.7109982 1.240353,-1.1142261 2.047214,-1.6260891 2.683112,-1.7021231 6.115768,-2.2587289 9.114598,-1.4779335 4.801346,1.2501093 8.388376,5.5990166 9.363977,11.3528517 0.307375,1.812809 0.316239,3.203349 0.03124,4.892455 -0.743225,4.403988 -2.855806,8.507259 -6.063205,11.776598 -0.368693,0.375815 -4.308278,3.959688 -8.754636,7.964158 -4.446351,4.004481 -8.431377,7.594648 -8.855608,7.978162 l -0.771334,0.697311 z"
   id="path4579"
   inkscape:connector-curvature="0" /><path
   style="fill:#f44336;fill-opacity:1;stroke:none;stroke-width:0.05508157"
   d="M 16.735152,41.880174 C 11.766794,37.370021 7.3443401,33.325446 6.9074766,32.89223 2.9260633,28.944057 0.50773764,23.894142 0.06773701,18.609579 -0.09919028,16.604723 0.35013598,13.723728 1.1759299,11.504056 2.4824881,7.9921252 4.8081449,5.1899495 7.8227219,3.4953595 9.2298296,2.704379 10.855183,2.1731791 12.576493,1.9417263 c 0.663498,-0.089216 2.455044,-0.090443 3.13965,-0.00215 3.122449,0.4026984 5.862851,1.7913325 8.059964,4.084197 0.622486,0.6496152 1.435558,1.6938314 1.811119,2.3259943 0.121769,0.2049679 0.238712,0.3726693 0.259872,0.3726693 0.02116,0 0.191672,-0.233986 0.378915,-0.5199689 2.256176,-3.4459393 5.935025,-5.7415862 10.035555,-6.2623107 0.692033,-0.087881 2.482905,-0.08707 3.13965,0.00142 4.616179,0.6220004 8.408419,3.3973547 10.633845,7.7823895 1.451857,2.8607752 2.158166,6.4594762 1.845799,9.4044952 -0.533182,5.026885 -2.917006,9.885491 -6.720347,13.697121 -0.864082,0.865965 -19.23098,17.265484 -19.329474,17.258988 -0.03438,-0.0023 -4.127532,-3.694247 -9.095889,-8.204399 z M 34.251091,40.03098 c 4.604819,-4.107506 8.653941,-7.730613 8.998049,-8.051349 3.628121,-3.381703 5.997981,-7.883159 6.650644,-12.63264 0.127994,-0.931428 0.12848,-2.447932 0.0011,-3.381328 C 49.393779,12.25042 47.984098,9.2757621 45.672007,7.0420787 43.977494,5.4050299 41.9919,4.3709718 39.786789,3.977173 38.978656,3.832853 37.389058,3.7804198 36.588952,3.8716916 c -3.162889,0.3608049 -6.055785,1.9640506 -8.056958,4.4651743 -0.837758,1.0470527 -1.477553,2.2133441 -2.27335,4.1441191 -0.208973,0.507015 -0.392345,0.921916 -0.407492,0.922001 -0.01515,1.1e-4 -0.23703,-0.5015 -0.49307,-1.114632 C 24.300763,9.7564309 23.562279,8.5744178 22.16435,7.1764888 21.162317,6.1744551 20.357065,5.5895238 19.138439,4.9784805 16.541149,3.6761475 13.399598,3.4523667 10.648638,4.37373 8.9675769,4.9367584 7.5253745,5.8433888 6.1845911,7.1800219 3.8809582,9.4765239 2.5106521,12.473335 2.079664,16.157353 c -0.1098473,0.938958 -0.083938,2.618053 0.053563,3.471235 0.7411702,4.598904 2.865604,8.68281 6.225256,11.967123 0.7331577,0.716717 17.434171,15.899118 17.492669,15.902071 0.01515,7.66e-4 3.79512,-3.359296 8.399939,-7.466802 z"
   id="path4581"
   inkscape:connector-curvature="0" /><path
   style="fill:#f44336;fill-opacity:1;stroke:#f44336;stroke-width:1.12898433;stroke-miterlimit:4;stroke-dasharray:none;stroke-opacity:0"
   d=""
   id="path4585"
   inkscape:connector-curvature="0" /><path
   style="fill:#f44336;fill-opacity:1;stroke:#f44336;stroke-width:1.12898433;stroke-miterlimit:4;stroke-dasharray:none;stroke-opacity:0"
   d=""
   id="path4589"
   inkscape:connector-curvature="0" /><path
   style="fill:#f44336;fill-opacity:1;stroke:#f44336;stroke-width:0.28224608;stroke-miterlimit:4;stroke-dasharray:none;stroke-opacity:0"
   d="m 26.149862,12.817024 c 0.0079,-0.01919 0.614011,-1.454483 0.640571,-1.516913 0.510238,-1.199307 1.219553,-2.3384614 2.057113,-3.3037111 l 0.05677,-0.06543 h 0.02336 0.02336 l -0.0099,0.010742 c -0.0054,0.00591 -0.03709,0.041504 -0.07037,0.079102 -0.914456,1.033057 -1.561746,2.1300331 -2.36373,4.0058591 -0.03123,0.07305 -0.09546,0.224219 -0.142734,0.335938 -0.189582,0.448033 -0.193554,0.45688 -0.205734,0.458319 -0.0079,9.29e-4 -0.0103,-1.6e-4 -0.0088,-0.0039 z"
   id="path4591"
   inkscape:connector-curvature="0" /><path
   style="fill:#f44336;fill-opacity:1;stroke:#f44336;stroke-width:0.28224608;stroke-miterlimit:4;stroke-dasharray:none;stroke-opacity:0"
   d="m 26.154065,12.811964 c 0.01653,-0.04309 0.673815,-1.594893 0.711733,-1.680365 0.140737,-0.317235 0.31011,-0.659341 0.477414,-0.964301 0.350828,-0.6394866 0.767445,-1.2637371 1.21746,-1.8242184 0.124517,-0.155083 0.337767,-0.406812 0.347931,-0.4107123 0.0027,-0.00104 0.01233,-0.00134 0.02138,-6.669e-4 l 0.01646,0.00122 -0.05364,0.060547 c -0.696943,0.7867215 -1.203597,1.5515313 -1.744128,2.6328126 -0.262976,0.526058 -0.428234,0.8928 -0.847537,1.880859 -0.110965,0.26148 -0.133515,0.310547 -0.142723,0.310547 -0.0041,0 -0.0057,-0.0021 -0.0044,-0.0057 z"
   id="path4593"
   inkscape:connector-curvature="0" /><path
   style="fill:#f44336;fill-opacity:1;stroke:#f44336;stroke-width:0.28224608;stroke-miterlimit:4;stroke-dasharray:none;stroke-opacity:0"
   d="m 26.152703,12.816001 c 0,-0.0043 0.649867,-1.541297 0.700409,-1.656515 0.129968,-0.296277 0.299725,-0.642303 0.458971,-0.935547 0.432015,-0.7955353 0.941926,-1.5362673 1.516683,-2.2032387 0.03801,-0.044105 0.07181,-0.08244 0.07512,-0.085187 0.0036,-0.00297 0.01354,-0.00451 0.02454,-0.00379 l 0.01852,0.0012 -0.06217,0.070313 c -0.686497,0.77636 -1.185182,1.5277936 -1.720031,2.5917967 -0.23335,0.464215 -0.426973,0.887493 -0.71137,1.555121 -0.291,0.683129 -0.284112,0.667535 -0.294849,0.667535 -0.0032,0 -0.0058,-7.6e-4 -0.0058,-0.0017 z"
   id="path4595"
   inkscape:connector-curvature="0" /><path
   style="fill:#f44336;fill-opacity:1;stroke:#f44336;stroke-width:0.28224608;stroke-miterlimit:4;stroke-dasharray:none;stroke-opacity:0"
   d="m 26.152703,12.815355 c 0,-0.0043 0.637834,-1.51314 0.693307,-1.640067 0.451316,-1.032639 1.069484,-2.0448478 1.777199,-2.910043 0.08185,-0.1000681 0.202092,-0.2425741 0.25134,-0.2978883 l 0.0324,-0.036386 h 0.01936 c 0.01065,0 0.01936,9.044e-4 0.01936,0.00201 0,0.00111 -0.02682,0.032306 -0.0596,0.069336 -0.698322,0.7887763 -1.207587,1.5610741 -1.754756,2.6610763 -0.264616,0.531973 -0.388316,0.807407 -0.859619,1.914063 -0.08157,0.191527 -0.104513,0.240234 -0.113168,0.240234 -0.0032,0 -0.0058,-0.001 -0.0058,-0.0023 z"
   id="path4597"
   inkscape:connector-curvature="0" /></svg>