<?xml version="1.0" encoding="UTF-8" standalone="no"?>
<!-- Generator: Adobe Illustrator 19.0.0, SVG Export Plug-In . SVG Version: 6.00 Build 0)  -->

<svg
   xmlns:dc="http://purl.org/dc/elements/1.1/"
   xmlns:cc="http://creativecommons.org/ns#"
   xmlns:rdf="http://www.w3.org/1999/02/22-rdf-syntax-ns#"
   xmlns:svg="http://www.w3.org/2000/svg"
   xmlns="http://www.w3.org/2000/svg"
   xmlns:sodipodi="http://sodipodi.sourceforge.net/DTD/sodipodi-0.dtd"
   xmlns:inkscape="http://www.inkscape.org/namespaces/inkscape"
   version="1.1"
   id="Capa_1"
   x="0px"
   y="0px"
   viewBox="0 0 49.94 49.94"
   style="enable-background:new 0 0 49.94 49.94;"
   xml:space="preserve"
   sodipodi:docname="isStar.svg"
   inkscape:version="0.92.4 (5da689c313, 2019-01-14)"><metadata
   id="metadata39"><rdf:RDF><cc:Work
       rdf:about=""><dc:format>image/svg+xml</dc:format><dc:type
         rdf:resource="http://purl.org/dc/dcmitype/StillImage" /></cc:Work></rdf:RDF></metadata><defs
   id="defs37" /><sodipodi:namedview
   pagecolor="#ffffff"
   bordercolor="#666666"
   borderopacity="1"
   objecttolerance="10"
   gridtolerance="10"
   guidetolerance="10"
   inkscape:pageopacity="0"
   inkscape:pageshadow="2"
   inkscape:window-width="1920"
   inkscape:window-height="986"
   id="namedview35"
   showgrid="false"
   inkscape:zoom="6.6831079"
   inkscape:cx="-22.051397"
   inkscape:cy="15.632243"
   inkscape:window-x="-11"
   inkscape:window-y="-11"
   inkscape:window-maximized="1"
   inkscape:current-layer="Capa_1" />
<path
   d="M48.856,22.731c0.983-0.958,1.33-2.364,0.906-3.671c-0.425-1.307-1.532-2.24-2.892-2.438l-12.092-1.757  c-0.515-0.075-0.96-0.398-1.19-0.865L28.182,3.043c-0.607-1.231-1.839-1.996-3.212-1.996c-1.372,0-2.604,0.765-3.211,1.996  L16.352,14c-0.23,0.467-0.676,0.79-1.191,0.865L3.069,16.623C1.71,16.82,0.603,17.753,0.178,19.06  c-0.424,1.307-0.077,2.713,0.906,3.671l8.749,8.528c0.373,0.364,0.544,0.888,0.456,1.4L8.224,44.702  c-0.232,1.353,0.313,2.694,1.424,3.502c1.11,0.809,2.555,0.914,3.772,0.273l10.814-5.686c0.461-0.242,1.011-0.242,1.472,0  l10.815,5.686c0.528,0.278,1.1,0.415,1.669,0.415c0.739,0,1.475-0.231,2.103-0.688c1.111-0.808,1.656-2.149,1.424-3.502  L39.651,32.66c-0.088-0.513,0.083-1.036,0.456-1.4L48.856,22.731z M37.681,32.998l2.065,12.042c0.104,0.606-0.131,1.185-0.629,1.547  c-0.499,0.361-1.12,0.405-1.665,0.121l-10.815-5.687c-0.521-0.273-1.095-0.411-1.667-0.411s-1.145,0.138-1.667,0.412l-10.813,5.686  c-0.547,0.284-1.168,0.24-1.666-0.121c-0.498-0.362-0.732-0.94-0.629-1.547l2.065-12.042c0.199-1.162-0.186-2.348-1.03-3.17  L2.48,21.299c-0.441-0.43-0.591-1.036-0.4-1.621c0.19-0.586,0.667-0.988,1.276-1.077l12.091-1.757  c1.167-0.169,2.176-0.901,2.697-1.959l5.407-10.957c0.272-0.552,0.803-0.881,1.418-0.881c0.616,0,1.146,0.329,1.419,0.881  l5.407,10.957c0.521,1.058,1.529,1.79,2.696,1.959l12.092,1.757c0.609,0.089,1.086,0.491,1.276,1.077  c0.19,0.585,0.041,1.191-0.4,1.621l-8.749,8.528C37.866,30.65,37.481,31.835,37.681,32.998z"
   id="path2"
   style="stroke:none;fill:#ffee58;fill-opacity:1" />
<g
   id="g4">
</g>
<g
   id="g6">
</g>
<g
   id="g8">
</g>
<g
   id="g10">
</g>
<g
   id="g12">
</g>
<g
   id="g14">
</g>
<g
   id="g16">
</g>
<g
   id="g18">
</g>
<g
   id="g20">
</g>
<g
   id="g22">
</g>
<g
   id="g24">
</g>
<g
   id="g26">
</g>
<g
   id="g28">
</g>
<g
   id="g30">
</g>
<g
   id="g32">
</g>
<path
   style="fill:#fbc02d;fill-opacity:1;stroke:none;stroke-width:10.81158638;stroke-miterlimit:4;stroke-dasharray:none;stroke-opacity:0"
   d="M 10.940447,46.592513 C 10.071125,46.120046 10.073848,46.05321 11.240684,39.223745 11.827776,35.787507 12.307168,32.643796 12.306,32.237719 12.302144,30.89701 12.006331,30.529427 6.9886213,25.6302 4.2503385,22.956576 2.2356717,20.873252 2.1495583,20.626226 c -0.2389625,-0.685488 0.076924,-1.4421 0.7531809,-1.804023 0.1393751,-0.07459 3.0354881,-0.537935 6.4358063,-1.029654 3.4003185,-0.491719 6.4211105,-0.961696 6.7128715,-1.044394 0.291761,-0.0827 0.82283,-0.400605 1.180153,-0.70646 0.57125,-0.488969 0.999459,-1.261567 3.547117,-6.3998989 1.690526,-3.4095963 3.056672,-5.9840356 3.279712,-6.1804674 0.426557,-0.3756688 1.041741,-0.4311094 1.660347,-0.149631 0.343074,0.1561062 0.888118,1.1557885 3.295702,6.0447462 1.586555,3.2217391 3.062899,6.0695511 3.280765,6.3284701 0.860133,1.022209 0.92422,1.037624 9.384358,2.257254 3.354534,0.483595 5.337055,0.834183 5.566195,0.984322 0.431259,0.28257 0.71967,1.082049 0.584555,1.620391 -0.06289,0.250562 -1.813354,2.070706 -4.799263,4.990295 -4.969378,4.859009 -5.439546,5.435345 -5.439546,6.667859 0,0.325452 0.471338,3.332095 1.047417,6.681429 0.57608,3.349334 1.047417,6.307043 1.047417,6.572687 0,0.334322 -0.134629,0.617618 -0.437383,0.920371 -0.789084,0.789085 -0.930407,0.738784 -7.178535,-2.555003 -3.232716,-1.704171 -5.996738,-3.066332 -6.420526,-3.164155 -0.551537,-0.127309 -0.915456,-0.128628 -1.406039,-0.0051 -0.364043,0.09167 -3.226491,1.515537 -6.360994,3.164155 -3.647799,1.918589 -5.852516,2.995329 -6.125344,2.991494 -0.234438,-0.0033 -0.602123,-0.101575 -0.817078,-0.2184 z"
   id="path861"
   inkscape:connector-curvature="0" /></svg>